<svg width="108" height="39" viewBox="0 0 108 39" fill="none" xmlns="http://www.w3.org/2000/svg">
<path fill-rule="evenodd" clip-rule="evenodd" d="M58.435 16.8867C58.435 14.7486 60.2185 13.9531 65.8166 13.9531C68.3513 13.9531 71.5624 14.2231 73.667 14.5941V8.30776C71.7045 7.91081 68.5235 7.6422 66.0388 7.6422C56.2964 7.6422 51.8435 10.773 51.8435 16.8127C51.8435 22.31 54.9533 24.8245 63.5946 26.4516C67.8163 27.2405 69.0753 28.0786 69.0753 30.1002C69.0753 31.7519 67.8656 32.4914 65.1253 32.4914H53.9171L51.7942 35.622L53.9171 38.7777H65.5943C71.8649 38.7777 75.6669 35.3263 75.6669 29.6316C75.6669 24.4794 72.5562 21.8909 64.4588 20.3626C59.794 19.4753 58.435 18.6981 58.435 16.8867ZM79.5426 23.4687C79.5426 32.8364 85.9121 38.7777 95.9597 38.7777V32.3435C89.5657 32.3435 86.1589 29.2619 86.1589 23.444C86.1589 17.2318 90.0348 13.9283 97.3177 13.9283C98.6014 13.9283 100.527 14.0763 101.391 14.2242V37.1011L104.675 38.9995L107.958 37.1011V8.80085C106.032 8.23379 101.44 7.66692 98.6755 7.66692C86.455 7.66692 79.5426 13.386 79.5426 23.4687ZM0 23.4687C0 32.6639 6.19652 38.7777 15.5036 38.7777L17.6515 35.5483L15.5036 32.3435C9.87476 32.3435 6.61624 29.0895 6.61624 23.444C6.61624 17.2318 10.4921 13.9283 17.7749 13.9283C19.0586 13.9283 20.9841 14.0763 21.8483 14.2242V38.7777H28.4152V8.80085C26.4895 8.23379 21.8976 7.66692 19.1327 7.66692C6.91237 7.66692 0 13.386 0 23.4687ZM44.8569 32.4914C43.2029 32.4914 42.2401 31.5792 42.2401 30.0015V1.89821L38.9566 3.05176e-05L35.6732 1.89821V30.2974C35.6732 35.3263 39.1294 38.7777 44.141 38.7777H46.98V32.4914H44.8569Z" fill="white"/>
</svg>
